HIERARCHY
ROOT Hips
{
	OFFSET -14.64140 90.27770 -84.91600
	CHANNELS 6 Xposition Yposition Zposition Zrotation Xrotation Yrotation
	JOINT Spine
	{
		OFFSET 0.00000 13.20850 -1.60436
		CHANNELS 3 Zrotation Xrotation Yrotation
		JOINT Spine1
		{
			OFFSET 0.00000 8.61716 0.00000
			CHANNELS 3 Zrotation Xrotation Yrotation
			JOINT Spine2
			{
				OFFSET 0.00000 8.61717 0.00000
				CHANNELS 3 Zrotation Xrotation Yrotation
				JOINT Spine3
				{
					OFFSET 0.00000 8.61717 0.00000
					CHANNELS 3 Zrotation Xrotation Yrotation
					JOINT Neck
					{
						OFFSET 0.00000 11.07920 1.10792
						CHANNELS 3 Zrotation Xrotation Yrotation
						JOINT Neck1
						{
							OFFSET 0.00000 7.08032 0.00000
							CHANNELS 3 Zrotation Xrotation Yrotation
							JOINT Head
							{
								OFFSET 0.00000 7.08031 0.00000
								CHANNELS 3 Zrotation Xrotation Yrotation
								End site
								{
									OFFSET 0.00000 0.00000 0.00000
								}
							}
						}
					}
					JOINT RightShoulder
					{
						OFFSET -0.01000 7.91373 5.19711
						CHANNELS 3 Zrotation Xrotation Yrotation
						JOINT RightArm
						{
							OFFSET -18.41580 0.00000 0.00000
							CHANNELS 3 Zrotation Xrotation Yrotation
							JOINT RightForeArm
							{
								OFFSET -29.11090 0.00000 0.00000
								CHANNELS 3 Zrotation Xrotation Yrotation
								JOINT RightHand
								{
									OFFSET -24.65040 0.00000 0.00000
									CHANNELS 3 Zrotation Xrotation Yrotation
									JOINT RightHandThumb1
									{
										OFFSET -5.35114 -0.85590 3.97906
										CHANNELS 3 Zrotation Xrotation Yrotation
										JOINT RightHandThumb2
										{
											OFFSET -4.52789 0.00000 0.00000
											CHANNELS 3 Zrotation Xrotation Yrotation
											JOINT RightHandThumb3
											{
												OFFSET -2.46976 0.00000 0.00000
												CHANNELS 3 Zrotation Xrotation Yrotation
												End site
												{
													OFFSET 0.00000 0.00000 0.00000
												}
											}
										}
									}
									JOINT RightHandIndex1
									{
										OFFSET -14.26970 0.00000 2.88139
										CHANNELS 3 Zrotation Xrotation Yrotation
										JOINT RightHandIndex2
										{
											OFFSET -5.48836 0.00000 0.00000
											CHANNELS 3 Zrotation Xrotation Yrotation
											JOINT RightHandIndex3
											{
												OFFSET -3.01859 0.00000 0.00000
												CHANNELS 3 Zrotation Xrotation Yrotation
												End site
												{
													OFFSET 0.00000 0.00000 0.00000
												}
											}
										}
									}
									JOINT RightHandMiddle1
									{
										OFFSET -14.26970 0.00000 -0.09147
										CHANNELS 3 Zrotation Xrotation Yrotation
										JOINT RightHandMiddle2
										{
											OFFSET -6.17441 0.00000 0.00000
											CHANNELS 3 Zrotation Xrotation Yrotation
											JOINT RightHandMiddle3
											{
												OFFSET -3.56743 0.00000 0.00000
												CHANNELS 3 Zrotation Xrotation Yrotation
												End site
												{
													OFFSET 0.00000 0.00000 0.00000
												}
											}
										}
									}
									JOINT RightHandRing1
									{
										OFFSET -12.69180 0.00000 -3.06433
										CHANNELS 3 Zrotation Xrotation Yrotation
										JOINT RightHandRing2
										{
											OFFSET -5.62556 0.00000 0.00000
											CHANNELS 3 Zrotation Xrotation Yrotation
											JOINT RightHandRing3
											{
												OFFSET -3.56744 0.00000 0.00000
												CHANNELS 3 Zrotation Xrotation Yrotation
												End site
												{
													OFFSET 0.00000 0.00000 0.00000
												}
											}
										}
									}
									JOINT RightHandPinky1
									{
										OFFSET -11.11390 0.00000 -6.03719
										CHANNELS 3 Zrotation Xrotation Yrotation
										JOINT RightHandPinky2
										{
											OFFSET -4.52789 0.00000 0.00000
											CHANNELS 3 Zrotation Xrotation Yrotation
											JOINT RightHandPinky3
											{
												OFFSET -2.46976 0.00000 0.00000
												CHANNELS 3 Zrotation Xrotation Yrotation
												End site
												{
													OFFSET 0.00000 0.00000 0.00000
												}
											}
										}
									}
								}
							}
						}
					}
					JOINT LeftShoulder
					{
						OFFSET 0.01000 7.91373 5.19711
						CHANNELS 3 Zrotation Xrotation Yrotation
						JOINT LeftArm
						{
							OFFSET 18.41580 0.00000 0.00000
							CHANNELS 3 Zrotation Xrotation Yrotation
							JOINT LeftForeArm
							{
								OFFSET 29.11090 0.00000 0.00000
								CHANNELS 3 Zrotation Xrotation Yrotation
								JOINT LeftHand
								{
									OFFSET 24.65040 0.00000 0.00000
									CHANNELS 3 Zrotation Xrotation Yrotation
									JOINT LeftHandThumb1
									{
										OFFSET 5.35114 -0.85590 3.97906
										CHANNELS 3 Zrotation Xrotation Yrotation
										JOINT LeftHandThumb2
										{
											OFFSET 4.52789 0.00000 0.00000
											CHANNELS 3 Zrotation Xrotation Yrotation
											JOINT LeftHandThumb3
											{
												OFFSET 2.46977 0.00000 0.00000
												CHANNELS 3 Zrotation Xrotation Yrotation
												End site
												{
													OFFSET 0.00000 0.00000 0.00000
												}
											}
										}
									}
									JOINT LeftHandIndex1
									{
										OFFSET 14.26970 0.00000 2.88139
										CHANNELS 3 Zrotation Xrotation Yrotation
										JOINT LeftHandIndex2
										{
											OFFSET 5.48836 0.00000 0.00000
											CHANNELS 3 Zrotation Xrotation Yrotation
											JOINT LeftHandIndex3
											{
												OFFSET 3.01859 0.00000 0.00000
												CHANNELS 3 Zrotation Xrotation Yrotation
												End site
												{
													OFFSET 0.00000 0.00000 0.00000
												}
											}
										}
									}
									JOINT LeftHandMiddle1
									{
										OFFSET 14.26970 0.00000 -0.09147
										CHANNELS 3 Zrotation Xrotation Yrotation
										JOINT LeftHandMiddle2
										{
											OFFSET 6.17440 0.00000 0.00000
											CHANNELS 3 Zrotation Xrotation Yrotation
											JOINT LeftHandMiddle3
											{
												OFFSET 3.56744 0.00000 0.00000
												CHANNELS 3 Zrotation Xrotation Yrotation
												End site
												{
													OFFSET 0.00000 0.00000 0.00000
												}
											}
										}
									}
									JOINT LeftHandRing1
									{
										OFFSET 12.69180 0.00000 -3.06433
										CHANNELS 3 Zrotation Xrotation Yrotation
										JOINT LeftHandRing2
										{
											OFFSET 5.62556 0.00000 0.00000
											CHANNELS 3 Zrotation Xrotation Yrotation
											JOINT LeftHandRing3
											{
												OFFSET 3.56744 0.00000 0.00000
												CHANNELS 3 Zrotation Xrotation Yrotation
												End site
												{
													OFFSET 0.00000 0.00000 0.00000
												}
											}
										}
									}
									JOINT LeftHandPinky1
									{
										OFFSET 11.11390 0.00000 -6.03719
										CHANNELS 3 Zrotation Xrotation Yrotation
										JOINT LeftHandPinky2
										{
											OFFSET 4.52789 0.00000 0.00000
											CHANNELS 3 Zrotation Xrotation Yrotation
											JOINT LeftHandPinky3
											{
												OFFSET 2.46976 0.00000 0.00000
												CHANNELS 3 Zrotation Xrotation Yrotation
												End site
												{
													OFFSET 0.00000 0.00000 0.00000
												}
											}
										}
									}
								}
							}
						}
					}
					JOINT pCube4
					{
						OFFSET 0.00000 10.91090 1.10792
						CHANNELS 3 Zrotation Xrotation Yrotation
						End site
						{
							OFFSET 0.00000 0.00000 0.00000
						}
					}
				}
			}
		}
	}
	JOINT RightUpLeg
	{
		OFFSET -9.98441 0.00000 0.00000
		CHANNELS 3 Zrotation Xrotation Yrotation
		JOINT RightLeg
		{
			OFFSET 0.00000 -42.11790 0.00000
			CHANNELS 3 Zrotation Xrotation Yrotation
			JOINT RightFoot
			{
				OFFSET 0.00000 -45.00020 -0.00001
				CHANNELS 3 Zrotation Xrotation Yrotation
				JOINT RightForeFoot
				{
					OFFSET 0.00000 -3.74820 0.00000
					CHANNELS 3 Zrotation Xrotation Yrotation
					JOINT RightToeBase
					{
						OFFSET 0.00000 0.06325 14.43120
						CHANNELS 3 Zrotation Xrotation Yrotation
						End site
						{
							OFFSET 0.00000 0.00000 0.00000
						}
					}
				}
			}
		}
	}
	JOINT LeftUpLeg
	{
		OFFSET 9.98441 0.00000 0.00000
		CHANNELS 3 Zrotation Xrotation Yrotation
		JOINT LeftLeg
		{
			OFFSET 0.00000 -42.11800 0.00000
			CHANNELS 3 Zrotation Xrotation Yrotation
			JOINT LeftFoot
			{
				OFFSET 0.00000 -45.00070 0.00000
				CHANNELS 3 Zrotation Xrotation Yrotation
				JOINT LeftForeFoot
				{
					OFFSET 0.00000 -3.74824 0.00000
					CHANNELS 3 Zrotation Xrotation Yrotation
					JOINT LeftToeBase
					{
						OFFSET 0.00000 0.06325 14.43110
						CHANNELS 3 Zrotation Xrotation Yrotation
						End site
						{
							OFFSET 0.00000 0.00000 0.00000
						}
					}
				}
			}
		}
	}
}
MOTION
Frames: 4
Frame Time: 0.050000
0.0018201771226635827 -0.034835784170914215 -0.04151466547725149 -0.02382647519597542 0.002993416285822698 0.027404390719982942 -3.4453255903028173 -0.6122443105456451 -0.6082291909699656 -1.1255317896222437 3.79747072770963 0.4165496302648866 -1.4001952546230485 -1.909286712347421 -0.9073879699887092 0.161744832509708 0.49739586537908814 -0.8301426603539653 0.09000668234842708 12.464771100777675 0.3399204774865816 0.22125815506832702 -0.1220437726743666 -0.9232625336946161 0.3112687392196846 -14.92629259847549 -0.042255509399779 -4.977397683362971 1.5826724626277575 -13.941784907971442 64.52129120705848 21.24410307698353 12.871468596625705 5.783769899036385 2.1799487628049534 62.43403829581568 15.438240709859283 -0.19430172008047378 -2.5354728367549204 4.564897614654328 -0.15048787533230001 -1.6290413711478475 0.045713181220688154 -0.008641053162098624 -56.28171808901156 -0.04433712021647071 0.020374021076762828 -56.22213152785239 -38.728326674913426 0.03805018612904371 -0.004406875952431114 -0.012681484068703692 0.016132491094014552 -0.022569101597715885 -0.025968373542420722 0.007777791305055507 -0.02381539299458441 -36.73605691814176 -0.022478294905785096 0.007846417241107627 -0.0013746408018032758 0.04483727206070595 0.022646629935550337 -0.009070901451428054 0.018667563327081034 -0.04677743129083821 -19.731271254656416 -0.004154168757316853 -0.011760613952744402 -0.016459058829107524 0.030456316336250604 0.04870852589349988 -0.03075400755229245 -0.014421527982822601 -0.015285271202880864 24.071899285186248 -0.007038432013647184 -0.03160480447807207 28.91201376201996 -0.03227597823070102 0.012543314175421592 28.85454183387566 0.030718222191667695 -0.002156177463080418 5.39832208032359 1.2110450004743063 12.59832350888763 -70.13987351401381 28.028262264085452 -10.941809982675062 -44.7909551988765 2.983307506110852 -80.31090535069588 -5.621576496222409 0.6899321243706199 -0.6349360965246924 -0.5086047221418011 0.0396480171038799 -8.094338806355196 -0.03138852181779971 0.003781068057708741 44.524983890070146 0.0194397191133968 0.018249833478875807 44.581833118948744 12.456050938705925 -0.007681469280805625 0.03438653575613129 -0.02094155478604391 -0.0028685166272302202 0.0029573505469462327 -0.023344430713676406 0.0002150713216819012 -0.00493185795276457 11.074091268822965 -0.02888914014344842 -0.01686057955155252 0.026642013361692498 0.011840202997932151 -0.030794447981151545 -0.0019155294667342164 0.040679515542306935 0.01756691300331315 4.746912357368879 0.004809769983124518 -0.004969176759970425 -0.025159569316896977 -0.019326205003412582 -0.04259562203541892 -0.01011647310220308 0.0015362596209178808 0.025273911738250485 -5.5821667807523045 0.002425397149435033 -0.035090302860327674 -6.705088107299031 -0.01684462788364083 -0.012753025894214847 -6.731510065419473 0.008635998036913856 0.01744174580196835 0.024879283847312653 -0.004677188814837028 -0.03737123499327565 8.031130272780334 3.4923801897020903 -19.195100172331628 0.026612313036341942 10.36327639651259 -0.0037061760263458546 -5.596021302929624 -15.650633430453247 3.1972544749904617 -0.0075889269698903306 -0.014556184646917936 0.00014146991096185995 -0.04865146313769025 4.6956960691772744 0.023901388569687248 12.421929838068726 -8.214074576615868 6.890432269728034 0.022268399314229068 46.412231903379 0.024166245708859925 -4.336272387742721 -14.740171100879516 -3.819275004480016 0.04452019851964373 0.02850816657087828 0.04304688849102184 -0.02056076955689219 -10.768508609019573 0.017266586575244724 
-0.0026661972093609556 0.03292917063195866 0.005511105242607978 -0.011564195875929321 0.006681279466780223 -0.0013618558599759695 -3.411954470193675 -0.601433502419622 -0.6206552152819585 -1.098701247446437 3.7521458916263586 0.40061516643519635 -1.3580796141539009 -1.9498868867653787 -0.9401429741048513 0.0833851333016834 0.4933225788014024 -0.8590959818671291 -0.041129106653799104 12.533077404363153 0.6755493024281666 0.2154208478289696 -0.12366422436456423 -0.10260565055388644 0.17612045528196352 -14.945158594444235 0.01459434456617728 -4.894017837879448 1.6254165317912732 -13.894849326390037 65.10215739070048 22.11304109426344 11.949240210440035 5.9282707053024835 2.4577547833169255 62.766999182753175 15.593361113471456 -0.21175524954340696 -2.497774372590337 4.5136295593919185 -0.1315075427762618 -1.6313014029742592 0.00043844652620726423 0.04823965994621113 -56.27660432109335 -0.0004907308705734528 0.036676874217596495 -56.2216681842649 -38.78874010999218 -0.017740010379223747 -0.015554098108199951 -0.02405868131412429 0.006985108795233847 -0.045510136667564004 -0.031112195130036394 0.013805344820175817 0.037737966568559156 -36.70429361986598 0.013701237925183369 -0.03547409644027684 0.0001336906893467198 -0.003047826585650881 0.004822091200261246 -0.026535776743722626 0.015206458712877704 0.018943563748536597 -19.7517589264267 -0.03295447174300309 0.04093960727850025 -0.04127141929077032 0.004965067301111475 0.015515879942211321 -0.012168676618436042 -0.0017424575637022446 0.020143562995359958 24.029036408326768 0.04550579734471293 0.021163576821097735 28.844218754987175 0.03271833019679013 0.020718146307587337 28.868002287108165 -0.018889617217918625 0.04016810393686999 5.593414790496338 1.229947279377888 12.624671972112386 -70.40173039057869 28.18631903948252 -10.934388084493385 -44.30789907997004 3.101801229595918 -80.24864745514571 -6.159828903764315 0.5001511163928398 -0.6351054343770071 -0.4703081797957126 0.029603085062417087 -8.096785724231813 0.02326083635042217 0.03280531741083766 44.59913904723706 -0.03403187627098435 0.030257255034755293 44.560199447654945 12.42361957870916 0.0258475090610898 -0.023494645149281228 -0.022081493133600756 -0.003386591803808002 -0.03277551656667647 0.005228018465269543 -0.022136733823285046 0.043151285491830595 11.065978288217268 0.0033172826465601717 -0.03644865953450811 -0.00041171630553782856 0.004773941841468094 0.014746100148737533 -0.028657165251174684 -0.010097580654556319 0.0024354303886946946 4.77562306351935 -0.008861733649189584 0.011775231156178657 0.01526113943421737 0.044342434255853345 -0.04437103316394077 -0.0229083564580244 -0.04572011753589225 0.03441292975257979 -5.637682069361409 0.04407676600832064 0.022649664281147973 -6.6921249337429485 -0.030856982212223907 -0.04875327522970621 -6.693126232661566 -0.02825337787716638 0.04367615219750999 0.027534675799508426 -0.0191385319049923 0.0006848672313371655 8.035177076087217 3.486154901124634 -19.26212359046827 0.026185678741927947 10.434268027114314 -0.030229865122157768 -5.641143693291907 -15.670021935483607 3.2138295390671052 -0.007173135257652237 -0.0037587607913716673 -0.042809188331249616 -0.012184514926473981 4.732141565811969 0.01962686308226865 12.419406688499253 -8.239849018223318 6.834174730930055 -0.007009380604419447 46.42005645947736 -0.017586711866866635 -4.371624348219388 -14.729721053752536 -3.8252575050653888 0.006120565746495973 0.009690648132486894 0.01867716376994326 0.02293209860498993 -10.721229948459913 -0.04483506525439992 
0.026350892222225187 -0.0393953197200263 0.009104940305918232 0.0033838329145747695 -0.01660670188351295 0.013068176900925741 -3.2573255914981645 -0.4678444492192397 -0.6284489741749553 -1.0709469004962038 3.7345136316091256 0.37092164916975967 -1.299843895572221 -1.9189107920520405 -1.0295419252210791 -0.009902305421824718 0.5229381843156012 -0.8271694428307426 -0.24763657127711242 12.48803417708487 1.0870255710083538 0.20924171776395803 -0.1395004628567595 0.9410880579576324 0.07819952729098868 -15.03690442124905 0.07015525770925896 -4.557558421736783 1.5277368982994992 -14.06801412497479 67.40341372563024 23.358318516558626 9.225014947828795 5.468382596199271 3.172998395694308 60.17182250234373 16.44401525047792 -0.18686972155787135 -2.7337611073255155 4.47900929644458 -0.11640750435321028 -1.5869884681998783 0.04111382005293267 0.03326761439830494 -56.277932979192606 0.03836802079098486 0.03753384343299562 -56.26578012099422 -38.73110024300613 0.013487734151157909 0.02696619290491315 0.04212617666631398 0.0005815617626366746 0.02356908317469459 0.04401338422260935 0.011891962910196256 -0.004198006754687176 -36.730479308954514 -0.001950755426777422 -0.03431160567381313 0.006197062871832914 0.03564059935618054 -0.016450458188853916 0.019156815915468327 -0.015749028436636055 0.01621827090794225 -19.764933143972943 -0.044799980097704445 -0.010005132642467031 -0.014222355923060034 0.009794631413681065 0.04357259017154848 -0.03435017795307603 0.038121288177684835 -0.014653578978390213 24.02816844617209 0.0012265154400104713 0.03468230155775024 28.83550162114026 0.007338840252238185 -0.04030622378231938 28.87093940604757 0.0341015736606951 -0.00030420313477925336 5.878478249525972 1.2956058784445186 12.730553870344949 -71.12049627283974 28.17215743823355 -10.866508388920531 -43.62207834935888 3.803274437433121 -80.03953626438364 -7.556230155597963 -0.2585982280226288 -0.19567196639077603 -0.45923848200415895 0.0724252817966654 -8.091510243647843 0.03908854637640409 0.0029210173831738483 44.53556568490936 -0.01126757571091938 0.03146083751414894 44.54062724025061 12.499580281743555 -0.016350639101772382 0.013363503028129895 -0.04723920898712821 -0.028554723017944143 -0.02021630118377784 -0.030011965974376116 -0.029224102526244834 0.015702478878144334 11.147994018831437 -0.020405977281227266 0.017255492250555685 -0.039304551531253534 0.028555000276498172 0.014120291027841245 0.018443587370652464 0.007449552875453153 0.029110224781706787 4.7656177108422355 0.030552222342062483 -0.02466407815156895 0.029302452533486994 -0.015040270730760946 0.021444498734445937 0.03755445922940647 0.04939491876319922 -0.02329184559027242 -5.606789833419667 -0.016316902751702066 -0.02030111260753121 -6.693163949452235 -0.041088239071793965 0.0036742079022047333 -6.700695787409983 0.016691574648694536 -0.02455197852176423 -0.045730215202346366 0.04236723069192056 0.007490755852490775 8.02184824715995 3.5425689538881477 -19.17529753010403 -0.01881473953848757 10.433195843297172 -0.0014162302662908792 -5.60859452069928 -15.64833511785686 3.1784454856188837 -0.023935256663357874 0.017456524054709942 -0.046206833885689476 0.013731058847939539 4.704907578846235 0.020016279980457644 12.42714319727143 -8.275926629859697 6.906287316532475 -0.0471035888896921 46.33150184822065 -0.04384710499511869 -4.307183642930625 -14.742287086917818 -3.8024057328467307 0.019993643475481666 0.038089551155319 0.020252051498243336 0.03769326126832286 -10.704358036399853 -0.0015953103212437262 
0.01880802793583823 0.008473680007897739 -0.044640462117220045 -0.012772196464471053 -0.01630228721354651 -0.04609233697038308 -3.174391056007411 -0.24406897571523065 -0.7207472445201398 -1.0297405608014327 3.726103101212063 0.40282444545944857 -1.2801935754881748 -1.9008192408638267 -1.2568375145144164 -0.11736483553395553 0.49477103486828516 -0.865490214822142 -0.4235773496912715 12.430828541377325 1.4590769662011571 0.17115909003956298 -0.23087322422691842 2.062495501665771 -0.08350119462799316 -15.217709916649715 0.12564981089354377 -4.087955841277303 1.4380529118647183 -14.26206299269648 70.24622768775369 25.164029592193405 5.9078518758025105 4.763556455973715 3.6943097213030103 56.210209343532505 18.03400056237087 -0.18104619129936952 -3.113486000346779 4.5461512608123815 -0.13908006581592114 -1.6339742500465313 -0.02730427377170256 0.005845416582972738 -56.260800803555604 -0.03588066804246088 0.04229743909941553 -56.23098692061707 -38.778703406910196 0.014577398715097887 0.02761192363797437 -0.03665834947219309 0.027335847349318248 -0.02056185259112214 -0.03327352218274025 -0.02268640328893129 0.025254257175063057 -36.738347791205925 -0.011991415181002926 -0.03306716188820287 0.018529054804702832 -0.01674277454610106 -0.02040473738641244 -0.034503583617864444 0.04502968731579165 -0.0067875460338111746 -19.744633782152448 0.01660874884710704 0.049342141576840505 0.011725471362943815 0.020657186637978657 0.005950874448089669 0.03033766015192114 -0.034589501953181445 -0.04668145560988133 24.005102803525208 0.004080656379345206 -0.04366934338393507 28.84903372088543 0.010786802743716776 -0.025466082964258376 28.877459641258202 0.024016850297113906 -0.018496389454322977 6.0861740882516555 1.3895460326927191 12.894551587890936 -71.63553076005049 28.051412501722172 -10.603295041138518 -42.635547779820314 4.619975958133683 -79.23390645173266 -9.458611654499698 -1.5202984625205853 0.5853078170694297 -0.5172258837686731 0.11068413578782199 -8.089188514562663 -0.03172464830764777 0.0024897090904745255 44.558809790597884 -0.0027265674560110003 -0.022877648637671385 44.60010553661288 12.473685672985807 0.026942449026226115 -0.0329661827095124 0.029347027957467593 -0.03889728286808346 -0.004060203185943322 0.0009821661463743816 0.04619990762032747 -0.02427204743341888 11.11599924851759 0.0076395682904257765 -0.020237599500835188 -0.009043610754772084 0.033408324535411565 0.039813512398493636 -0.01992806782678465 -0.005387130936476752 0.02618623541377926 4.810314678543114 -0.010408724138607939 0.0107299320442671 0.02829941630976297 -0.03841273957693567 0.007106595068566253 -0.025004752989792614 0.019358883789923034 -0.005489726345884978 -5.593800884236666 -0.014382901371400721 -0.02513991166709899 -6.755303784537655 0.009613909211403654 0.03876805651718984 -6.682109848889658 0.0014839642651798255 0.036251851025537934 0.0013024347407080638 -0.012382490048110996 -0.011381445342004822 8.019173369589925 3.464688486025043 -19.21237678905751 0.020542019705145124 10.42151139284376 0.00925186579977395 -5.610634973470926 -15.630476455017858 3.190991115738612 -0.013174378369462017 0.03575698241642021 0.0026170480826296608 -0.013166235177942664 4.680628064943166 0.000485370858003543 12.422583041472015 -8.204082192061591 6.908316207505509 0.023016832947713527 46.40650784544509 -0.03125954330091573 -4.36551645045859 -14.748357454662127 -3.791519310560796 0.0010226236587239693 0.044400521246071946 -0.028596159319091548 -0.045528417894089575 -10.721673745973705 -0.010081520694022331 
